<svg width="747" height="233" viewBox="0 0 747 233" fill="none" xmlns="http://www.w3.org/2000/svg">
<path d="M213.791 54.8868L190.241 73.5293V95.6191H183.266V24.7803H190.241V65.6207L241.708 24.7803H251.712L219.212 50.6148L252.753 95.6191H244.1L213.791 54.8868Z" fill="#F7F7FF"/>
<path d="M274.722 30.9314V56.6577H321.808V62.8088H274.722V89.4815H328.581V95.6326H267.746V24.7803H328.581V30.9314H274.722Z" fill="#F7F7FF"/>
<path d="M424.943 95.6191H417.968V32.3914L387.442 95.6191H381.71L351.292 32.5942V95.6191H344.52V24.7803H354.834L384.738 86.6561L414.534 24.7803H424.957V95.6191H424.943Z" fill="#F7F7FF"/>
<path d="M442.125 60.2003C442.125 38.3267 457.645 23.5371 480.667 23.5371C503.69 23.5371 519.21 38.3267 519.21 60.2003C519.21 82.0738 503.69 96.8634 480.667 96.8634C457.645 96.8634 442.125 82.0738 442.125 60.2003ZM512.017 60.2003C512.017 42.0715 499.418 29.9856 480.667 29.9856C461.917 29.9856 449.317 42.0715 449.317 60.2003C449.317 78.329 461.917 90.4149 480.667 90.4149C499.418 90.4149 512.017 78.329 512.017 60.2003Z" fill="#F7F7FF"/>
<path d="M601.607 24.7803V95.6191H594.942L543.273 31.9723V95.6191H536.5V24.7803H546.085L594.834 84.8851V24.7803H601.607Z" fill="#F7F7FF"/>
<path d="M622.645 24.7803H629.62V95.6191H622.645V24.7803Z" fill="#F7F7FF"/>
<path d="M281.75 116.289L259.039 187.128H252.063L232.799 126.915L213.521 187.128H206.545L183.941 116.289H191.133L210.303 176.705L229.676 116.289H236.232L255.605 176.705L274.666 116.289H281.75Z" fill="#F7F7FF"/>
<path d="M297.164 116.289H304.14V187.128H297.164V116.289Z" fill="#F7F7FF"/>
<path d="M383.94 180.977V187.128H325.188V116.289H332.163V180.977H383.94Z" fill="#F7F7FF"/>
<path d="M457.792 180.977V187.128H399.039V116.289H406.015V180.977H457.792Z" fill="#F7F7FF"/>
<path d="M472.895 116.289H479.87V187.128H472.895V116.289Z" fill="#F7F7FF"/>
<path d="M552.802 167.013H511.866L502.282 187.115H494.887L528.954 116.276H536.038L570.106 187.115H562.508L552.815 167.013H552.802ZM514.773 160.875H549.881L532.374 123.887L514.773 160.875Z" fill="#F7F7FF"/>
<path d="M665.619 187.128H658.643V123.9L628.118 187.128H622.386L591.968 124.103V187.128H585.195V116.289H595.51L625.414 178.165L655.209 116.289H665.633V187.128H665.619Z" fill="#F7F7FF"/>
<path d="M681.449 177.638L684.991 172.123C692.589 178.368 703.431 181.91 715.3 181.91C730.82 181.91 739.675 176.705 739.675 167.431C739.675 159.198 733.213 156.076 714.773 154.832C692.791 153.48 684.464 148.167 684.464 135.77C684.464 123.374 695.928 115.046 714.368 115.046C725.413 115.046 734.997 117.966 742.595 123.59L739.364 129.322C732.699 124.117 723.953 121.508 713.638 121.508C700.2 121.508 691.656 126.929 691.656 135.473C691.656 144.017 698.01 146.937 716.558 148.072C738.431 149.424 746.867 154.737 746.867 167.134C746.867 180.775 735.403 188.386 715.206 188.386C701.768 188.386 689.79 184.641 681.449 177.652V177.638Z" fill="#F7F7FF"/>
<path d="M137.46 187.547L0.621867 187.06L0 0H135.527L137.473 187.547H137.46ZM6.01589 181.666L131.998 182.113L130.16 5.40754H5.42106L6.01589 181.666Z" fill="#F7F7FF"/>
<path d="M62.0938 230.078L133.636 185.169L131.797 6.63867L62.4317 52.8461L62.0938 230.078Z" fill="#F7F7FF"/>
<path d="M80.5482 122.549H75.1406V166.025H80.5482V122.549Z" fill="#0B0B0B"/>
<path d="M132.119 2.29848L59.3164 50.8516L61.5667 54.2257L134.369 5.6726L132.119 2.29848Z" fill="#F7F7FF"/>
<path d="M63.1846 51.1601L59.1289 51.165L59.3505 232.574L63.4062 232.569L63.1846 51.1601Z" fill="#F7F7FF"/>
<path d="M135.017 183.822L61.0859 229.465L63.2165 232.916L137.148 187.273L135.017 183.822Z" fill="#F7F7FF"/>
</svg>
