<svg width="178" height="96" viewBox="0 0 178 96" fill="none" xmlns="http://www.w3.org/2000/svg">
<path d="M6.02783 77.1679L2.0798 80.2947V83.9969H0.910156V72.1143H2.0798V78.9622L10.7102 72.1143H12.3871L6.9363 76.4486L12.5612 83.9969H11.1114L6.02783 77.1641V77.1679Z" fill="#F7F7FF"/>
<path d="M16.2478 73.1477V77.4631H24.1438V78.4928H16.2478V82.9672H25.2794V83.9969H15.0781V72.1143H25.2794V73.1439H16.2478V73.1477Z" fill="#F7F7FF"/>
<path d="M41.4361 83.9969H40.2665V73.39L35.1488 83.9969H34.1873L29.0848 73.4278V83.9969H27.9492V72.1143H29.6791L34.6946 82.494L39.6911 72.1143H41.4399V83.9969H41.4361Z" fill="#F7F7FF"/>
<path d="M44.3242 78.0577C44.3242 74.3895 46.9285 71.9062 50.7895 71.9062C54.6504 71.9062 57.2547 74.3857 57.2547 78.0577C57.2547 81.7296 54.6504 84.2091 50.7895 84.2091C46.9285 84.2091 44.3242 81.7296 44.3242 78.0577ZM56.0472 78.0577C56.0472 75.0179 53.935 72.9927 50.7895 72.9927C47.6439 72.9927 45.5317 75.0179 45.5317 78.0577C45.5317 81.0974 47.6439 83.1226 50.7895 83.1226C53.935 83.1226 56.0472 81.0974 56.0472 78.0577Z" fill="#F7F7FF"/>
<path d="M71.0691 72.1172V83.9998H69.9524L61.2879 73.3248V83.9998H60.1523V72.1172H61.7611L69.9373 82.1979V72.1172H71.0728H71.0691Z" fill="#F7F7FF"/>
<path d="M74.5977 72.1172H75.7673V83.9998H74.5977V72.1172Z" fill="#F7F7FF"/>
<path d="M99.9952 72.1172L96.1872 83.996H95.0176L91.7849 73.8964L88.5523 83.996H87.3827L83.5898 72.1172H84.7936L88.0072 82.2509L91.255 72.1172H92.3565L95.6043 82.2509L98.8028 72.1172H99.9914H99.9952Z" fill="#F7F7FF"/>
<path d="M102.582 72.1172H103.752V83.996H102.582V72.1172Z" fill="#F7F7FF"/>
<path d="M117.134 82.9664V83.996H107.281V72.1172H108.451V82.9664H117.134Z" fill="#F7F7FF"/>
<path d="M129.521 82.9664V83.996H119.668V72.1172H120.838V82.9664H129.521Z" fill="#F7F7FF"/>
<path d="M132.059 72.1172H133.228V83.996H132.059V72.1172Z" fill="#F7F7FF"/>
<path d="M145.451 80.628H138.585L136.976 84.0009H135.734L141.446 72.1221H142.635L148.347 84.0009H147.071L145.447 80.628H145.451ZM139.077 79.5946H144.963L142.029 73.394L139.077 79.5946Z" fill="#F7F7FF"/>
<path d="M164.378 83.996H163.208V73.3891L158.09 83.996H157.129L152.026 73.427V83.996H150.891V72.1172H152.62L157.636 82.497L162.633 72.1172H164.381V83.996H164.378Z" fill="#F7F7FF"/>
<path d="M167.027 82.4072L167.622 81.4797C168.897 82.5283 170.714 83.1226 172.705 83.1226C175.31 83.1226 176.793 82.2482 176.793 80.6924C176.793 79.3107 175.711 78.7883 172.618 78.5801C168.931 78.3529 167.535 77.4633 167.535 75.3813C167.535 73.2993 169.457 71.9062 172.55 71.9062C174.401 71.9062 176.01 72.3946 177.285 73.3372L176.744 74.2987C175.627 73.4242 174.159 72.9889 172.429 72.9889C170.177 72.9889 168.742 73.8974 168.742 75.3283C168.742 76.7592 169.81 77.2514 172.917 77.4406C176.585 77.6678 178.001 78.5573 178.001 80.6394C178.001 82.9296 176.078 84.2053 172.69 84.2053C170.438 84.2053 168.428 83.5769 167.031 82.4072H167.027Z" fill="#F7F7FF"/>
<path d="M107.479 48.0945L72.3893 47.9696L72.2266 0H106.979L107.479 48.0945ZM73.771 46.5879L106.078 46.7015L105.609 1.38549H73.6195L73.771 46.5879Z" fill="#F7F7FF"/>
<path d="M88.1523 59.004L106.496 47.4847L106.026 1.70312L88.2394 13.5517L88.1523 59.004Z" fill="#F7F7FF"/>
<path d="M92.8893 31.4268H91.5039V42.575H92.8893V31.4268Z" fill="#0B0B0B"/>
<path d="M106.106 0.588167L87.4375 13.0391L88.0151 13.9051L106.683 1.45424L106.106 0.588167Z" fill="#F7F7FF"/>
<path d="M88.4394 13.1159L87.3984 13.1172L87.4553 59.6369L88.4962 59.6357L88.4394 13.1159Z" fill="#F7F7FF"/>
<path d="M106.857 47.1457L87.8984 58.8506L88.4453 59.7364L107.403 48.0315L106.857 47.1457Z" fill="#F7F7FF"/>
<path d="M42.3151 95.9164L40.6874 93.7209H38.4995V95.9164H37.9961V90.7871H41.0584C42.0993 90.7871 42.686 91.3133 42.686 92.2521C42.686 93.119 42.1864 93.6414 41.2968 93.7171L42.9321 95.9202H42.3151V95.9164ZM38.4957 93.2742H40.9486C41.7624 93.2742 42.1637 92.941 42.1637 92.2483C42.1637 91.5556 41.7624 91.23 40.9486 91.23H38.4957V93.2742Z" fill="#F7F7FF"/>
<path d="M49.226 91.23V93.0925H52.6365V93.5392H49.226V95.4697H53.1248V95.9164H48.7188V90.7871H53.1248V91.2338H49.226V91.23Z" fill="#F7F7FF"/>
<path d="M62.6902 94.459H59.7263L59.0336 95.9164H58.4961L60.9641 90.7871H61.4789L63.9469 95.9164H63.398L62.6977 94.459H62.6902ZM59.9383 94.0161H62.482L61.2139 91.336L59.9383 94.0161Z" fill="#F7F7FF"/>
<path d="M73.946 95.4697V95.9164H69.6914V90.7871H70.1948V95.4735H73.9423L73.946 95.4697Z" fill="#F7F7FF"/>
<path d="M87.1361 91.23V93.0925H90.5467V93.5392H87.1361V95.4697H91.035V95.9164H86.6289V90.7871H91.035V91.2338H87.1361V91.23Z" fill="#F7F7FF"/>
<path d="M96.4686 95.2282L96.726 94.827C97.2787 95.2812 98.0622 95.5349 98.9215 95.5349C100.046 95.5349 100.685 95.1563 100.685 94.4863C100.685 93.892 100.216 93.6648 98.8836 93.574C97.2938 93.4756 96.6882 93.0894 96.6882 92.1923C96.6882 91.2951 97.5171 90.6895 98.8533 90.6895C99.652 90.6895 100.349 90.9014 100.897 91.3065L100.663 91.7229C100.178 91.3443 99.5461 91.1551 98.8004 91.1551C97.8275 91.1551 97.2068 91.5488 97.2068 92.1658C97.2068 92.7828 97.6686 92.9948 99.0085 93.0781C100.595 93.1765 101.204 93.5626 101.204 94.4598C101.204 95.4478 100.375 96.0005 98.9101 96.0005C97.9373 96.0005 97.0705 95.7279 96.4648 95.2245L96.4686 95.2282Z" fill="#F7F7FF"/>
<path d="M111.298 91.2309H109.178V95.9173H108.675V91.2309H106.562V90.7842H111.298V91.2309Z" fill="#F7F7FF"/>
<path d="M119.745 94.459H116.781L116.088 95.9164H115.551L118.019 90.7871H118.534L121.002 95.9164H120.453L119.752 94.459H119.745ZM116.989 94.0161H119.533L118.265 91.336L116.989 94.0161Z" fill="#F7F7FF"/>
<path d="M129.981 91.2309H127.862V95.9173H127.358V91.2309H125.246V90.7842H129.981V91.2309Z" fill="#F7F7FF"/>
<path d="M136.23 91.23V93.0925H139.64V93.5392H136.23V95.4697H140.129V95.9164H135.723V90.7871H140.129V91.2338H136.23V91.23Z" fill="#F7F7FF"/>
</svg>
